<svg width="15" height="14" viewBox="0 0 15 14" fill="none" xmlns="http://www.w3.org/2000/svg">
<path d="M9.79982 13.057C9.74824 13.0247 9.69667 12.9925 9.65246 12.9602C9.58614 12.9037 9.52719 12.8391 9.47561 12.7584C9.37983 12.605 9.32825 12.4274 9.32825 12.2257C9.32825 12.1207 9.34298 12.0158 9.37246 11.9109C9.37983 11.8866 9.38719 11.8544 9.39456 11.8301C9.41667 11.7736 9.43877 11.7252 9.46825 11.6687C9.48298 11.6445 9.49772 11.6122 9.51246 11.5799L12.423 6.78537L9.77772 2.41862C9.67456 2.25719 9.61561 2.09575 9.58614 1.93432C9.57877 1.87782 9.5714 1.82939 9.5714 1.77289C9.5714 1.67603 9.58614 1.57917 9.61561 1.48231C9.63035 1.42581 9.65982 1.36123 9.68193 1.3128C9.69667 1.28859 9.7114 1.2563 9.72614 1.23209C9.89561 0.981867 10.183 0.820435 10.5146 0.820435C10.7798 0.820435 10.9935 0.909223 11.1703 1.10294L11.1777 1.11101C11.2219 1.15944 11.2661 1.22402 11.3103 1.28859C11.3177 1.29666 11.3251 1.3128 11.3324 1.32088L13.543 4.9854H13.5798L13.5872 4.96925L14.2945 6.11543C14.5377 6.51094 14.5377 7.02752 14.2945 7.4311L13.5798 8.59342L13.5724 8.58535H13.5356L11.0746 12.6615C10.8535 13.0005 10.5882 13.162 10.2567 13.162C10.0872 13.17 9.93245 13.1297 9.79982 13.057Z" fill="#F15254"/>
<path d="M7.99482 13.057C8.0464 13.0247 8.09798 12.9925 8.14219 12.9602C8.2085 12.9037 8.26745 12.8391 8.31903 12.7584C8.41481 12.605 8.46639 12.4274 8.46639 12.2257C8.46639 12.1207 8.45166 12.0158 8.42218 11.9109C8.41481 11.8866 8.40745 11.8544 8.40008 11.8301C8.37797 11.7736 8.35587 11.7252 8.32639 11.6687C8.31166 11.6445 8.29692 11.6122 8.28218 11.5799L5.37168 6.7773L8.01692 2.41055C8.12008 2.24911 8.17903 2.08768 8.2085 1.92625C8.21587 1.86975 8.22324 1.82132 8.22324 1.76482C8.22324 1.66796 8.2085 1.5711 8.17903 1.47424C8.16429 1.41774 8.13482 1.35316 8.11271 1.30473C8.09798 1.28052 8.08324 1.24823 8.0685 1.22402C7.89903 0.981867 7.61903 0.820435 7.28009 0.820435C7.01483 0.820435 6.80114 0.909223 6.6243 1.10294L6.61693 1.11101C6.57272 1.15944 6.52851 1.22402 6.4843 1.28859C6.47694 1.29666 6.46957 1.3128 6.4622 1.32088L4.25169 4.9854H4.21485L4.20748 4.96925L3.50012 6.11543C3.25696 6.51094 3.25696 7.02752 3.50012 7.4311L4.21485 8.59342L4.22222 8.58535H4.25906L6.72009 12.6615C6.94114 13.0005 7.2064 13.162 7.53798 13.162C7.70745 13.17 7.86219 13.1297 7.99482 13.057Z" fill="#3A2557"/>
<path d="M2.6231 5.47777L3.57362 3.92802L2.01153 1.32088C1.79048 0.981867 1.52522 0.820435 1.18627 0.820435C0.633643 0.820435 0.250488 1.23209 0.250488 1.76482C0.250488 1.98275 0.316804 2.19261 0.449434 2.41055L2.47574 5.75221C2.51995 5.66342 2.57152 5.56656 2.6231 5.47777Z" fill="#3A2557"/>
<path d="M2.62314 8.08494C2.56419 7.99615 2.51998 7.89929 2.47577 7.80243L0.184209 11.5719C0.0515786 11.7898 0 11.9997 0 12.2176C0 12.7503 0.383155 13.162 0.935783 13.162C1.26736 13.162 1.53999 13.0006 1.75367 12.6616L3.58103 9.63469L2.62314 8.08494Z" fill="#3A2557"/>
</svg>
